<svg width="1280" height="192" viewBox="0 0 1280 192" fill="none" xmlns="http://www.w3.org/2000/svg">
<path fill-rule="evenodd" clip-rule="evenodd" d="M300.601 54.3039L265.768 54.3317H243.543V168H186.857V24H358.611V69.7932C358.671 70.7261 358.702 71.6717 358.702 72.6301C358.702 73.587 358.671 74.5304 358.611 75.461V113.989H321.75L363.046 164.551L433.079 24H510.201L581.952 168H520.643L472.61 62.6848H470.819L422.638 168H303.957L265.704 119.967V90.3313H300.601V54.3039ZM1251.05 168H1050.38V24H1251.05V54.3039H1107.06V137.696H1194.37V111.152H1152.18V80.8479H1251.05V168ZM28.9446 24H179.459V54.53H85.6295V80.6849H170.21V111.216H85.6295V168H28.9446V24ZM602.535 24L645.256 107.635L696.72 24H767.428V168H711.936V83.2709H710.146L661.069 166.906H618.855L544.581 24H602.535ZM838.076 168H781.39V24H838.076V168ZM1037.76 168H990.17L910.066 90.3313H908.573V168H851.888V24H900.369L979.28 101.469H981.071V24H1037.76V168Z" fill="white"/>
</svg>
