<svg width="512" height="512" viewBox="0 0 512 512" fill="none" xmlns="http://www.w3.org/2000/svg">
<path d="M512 0H0V512H512V0Z" fill="white"/>
<path d="M151.989 190.463C151.849 188.764 151.38 187.307 150.58 186.094C149.781 184.88 148.625 183.97 147.112 183.363C145.6 182.756 143.697 182.453 141.402 182.453C139.316 182.453 137.569 182.713 136.161 183.233C134.753 183.753 133.693 184.472 132.98 185.391C132.267 186.31 131.911 187.359 131.911 188.538C131.911 190.445 132.743 191.971 134.408 193.115C136.072 194.26 138.725 195.265 142.366 196.132L148.66 197.381C156.67 199.114 162.556 201.897 166.318 205.729C170.081 209.56 171.962 214.441 171.962 220.371C171.962 225.26 170.738 229.412 168.292 232.828C165.845 236.243 162.358 238.861 157.829 240.682C153.3 242.502 147.86 243.413 141.509 243.413C134.95 243.413 129.258 242.425 124.433 240.448C119.61 238.471 115.896 235.481 113.294 231.476C110.691 227.471 109.389 222.451 109.389 216.417H128.27C128.409 218.706 129.016 220.657 130.091 222.269C131.166 223.881 132.657 225.095 134.564 225.91C136.471 226.725 138.725 227.132 141.326 227.132C143.545 227.132 145.435 226.837 146.995 226.248C148.555 225.659 149.743 224.861 150.558 223.855C151.373 222.85 151.78 221.688 151.78 220.371C151.78 219.122 151.399 218.047 150.636 217.146C149.873 216.244 148.642 215.438 146.943 214.727C145.244 214.016 143.008 213.366 140.233 212.777L132.64 211.06C125.739 209.604 120.459 207.15 116.801 203.7C113.143 200.25 111.314 195.664 111.314 189.943C111.314 185.261 112.597 181.126 115.163 177.537C117.729 173.948 121.292 171.157 125.851 169.163C130.411 167.169 135.622 166.172 141.482 166.172C147.446 166.172 152.639 167.169 157.06 169.163C161.481 171.157 164.905 173.992 167.333 177.667C169.76 181.343 170.973 185.608 170.973 190.463H151.989Z" fill="#2C5078"/>
<path d="M239.455 167.213V215.585C239.455 221.168 238.111 226.049 235.424 230.227C232.736 234.406 228.94 237.648 224.033 239.954C219.126 242.26 213.465 243.413 207.05 243.413C200.635 243.413 195.001 242.26 190.146 239.954C185.291 237.648 181.52 234.406 178.833 230.227C176.145 226.049 174.802 221.168 174.802 215.585V167.213H194.567V213.869C194.567 216.227 195.105 218.351 196.179 220.241C197.254 222.13 198.746 223.613 200.653 224.688C202.56 225.763 204.692 226.3 207.05 226.3C209.512 226.3 211.697 225.763 213.604 224.688C215.511 223.613 216.985 222.13 218.025 220.241C219.066 218.351 219.586 216.227 219.586 213.869V167.213H239.455Z" fill="#2C5078"/>
<path fill-rule="evenodd" clip-rule="evenodd" d="M263.985 217.406V242.528H244.22V167.213H276.26C281.878 167.213 286.776 168.236 290.954 170.281C295.133 172.327 298.375 175.266 300.681 179.098C302.987 182.93 304.14 187.446 304.14 192.647C304.14 197.884 302.969 202.365 300.628 206.093C298.395 209.65 295.27 212.378 291.254 214.277L306.636 242.528H285.051L271.712 217.406H263.985ZM263.985 201.906H271.735C274.336 201.906 276.486 201.585 278.185 200.943C279.884 200.302 281.193 199.296 282.112 197.927C283.031 196.557 283.49 194.797 283.49 192.647C283.49 190.463 283.031 188.668 282.112 187.264C281.193 185.86 279.867 184.811 278.133 184.117C276.399 183.424 274.266 183.077 271.735 183.077H263.985V201.906Z" fill="#2C5078"/>
<path fill-rule="evenodd" clip-rule="evenodd" d="M358.674 214.961H344.586V200.657H378.342V242.528H365.651L364.819 234.258H364.403C362.01 237.275 359.106 239.581 355.69 241.176C352.275 242.771 348.4 243.569 344.065 243.569C336.887 243.569 330.524 241.991 324.976 238.835C319.428 235.68 315.102 231.189 311.999 225.364C308.895 219.538 307.344 212.742 307.344 204.974C307.344 196.93 308.991 189.977 312.285 184.117C315.579 178.257 320.026 173.801 325.627 170.749C331.227 167.698 337.442 166.172 344.274 166.172C350.134 166.172 355.509 167.265 360.398 169.449C365.287 171.634 369.257 174.677 372.309 178.577C375.36 182.479 377.129 186.96 377.614 192.023H357.641C357.19 190.185 356.367 188.625 355.17 187.342C353.974 186.059 352.483 185.088 350.697 184.429C348.911 183.77 346.891 183.441 344.638 183.441C341.17 183.441 338.162 184.273 335.613 185.937C333.065 187.602 331.105 190.038 329.736 193.245C328.366 196.453 327.681 200.293 327.681 204.766C327.681 209.239 328.331 213.097 329.632 216.34C330.932 219.582 332.813 222.052 335.275 223.752C337.737 225.451 340.702 226.3 344.169 226.3C347.29 226.3 349.952 225.815 352.154 224.844C354.355 223.873 355.994 222.512 357.069 220.761C358.074 219.123 358.609 217.19 358.674 214.961Z" fill="#2C5078"/>
<path d="M402.612 167.213H382.847V242.528H402.612V167.213Z" fill="#2C5078"/>
<path d="M111.418 269.472H163.9V285.44H131.183V299.12H160.675V315.088H131.183V344.788H111.418V269.472Z" fill="#2C5078"/>
<path d="M168.61 269.472H188.376V328.819H219.116V344.788H168.61V269.472Z" fill="#2C5078"/>
<path fill-rule="evenodd" clip-rule="evenodd" d="M293.889 307.13C293.889 315.209 292.302 322.17 289.13 328.013C285.957 333.856 281.605 338.286 276.074 341.303C270.543 344.319 264.328 345.828 257.427 345.828C250.526 345.828 244.32 344.319 238.806 341.303C233.293 338.286 228.949 333.847 225.776 327.987C222.604 322.127 221.017 315.174 221.017 307.13C221.017 298.981 222.604 291.993 225.776 286.168C228.949 280.342 233.293 275.93 238.806 272.931C244.32 269.931 250.526 268.431 257.427 268.431C264.328 268.431 270.543 269.931 276.074 272.931C281.605 275.93 285.957 280.342 289.13 286.168C292.302 291.993 293.889 298.981 293.889 307.13ZM249.51 315.072V328.674H265.396V315.072H278.998V299.187H265.396V285.585H249.51V299.187H235.908V315.072H249.51Z" fill="#2C5078"/>
<path d="M292.669 269.472H314.672L325.282 316.596H325.907L338.286 269.472H355.866L368.298 316.804H368.922L379.481 269.472H401.534L379.481 344.788H360.34L347.388 301.668H346.816L333.812 344.788H314.827L292.669 269.472Z" fill="#2C5078"/>
</svg>
