<svg width="512" height="512" viewBox="0 0 512 512" fill="none" xmlns="http://www.w3.org/2000/svg">
<path d="M512 0H0V512H512V0Z" fill="white"/>
<path fill-rule="evenodd" clip-rule="evenodd" d="M96.5921 346.037L122.987 273.517C124.461 269.467 128.38 266.676 132.593 266.676H189.638C192.603 266.676 195.288 268.069 196.889 270.436C198.491 272.804 198.823 275.873 197.786 278.722L177.81 333.606H216.459L238.33 273.517C239.804 269.467 243.723 266.676 247.936 266.676H337.672C340.637 266.676 343.322 268.069 344.924 270.436C346.525 272.804 346.857 275.873 345.819 278.722L325.844 333.606H339.997L364.357 266.676H382.282L357.922 333.606H373.124L397.485 266.676H415.41L388.32 341.105C386.846 345.155 382.927 347.946 378.714 347.946H315.231C312.266 347.946 309.581 346.553 307.98 344.185C306.378 341.818 306.047 338.749 307.084 335.899L327.06 281.016H303.035L281.164 341.105C279.69 345.155 275.772 347.946 271.559 347.946H167.197C164.232 347.946 161.547 346.553 159.946 344.185C158.344 341.818 158.013 338.749 159.05 335.899L179.026 281.016H138.183L131.222 300.141H159.691L154.472 314.481H126.003L114.62 345.754L96.5921 346.037ZM253.525 281.016L234.384 333.606H265.969L285.11 281.016H253.525Z" fill="#2C5078"/>
<path fill-rule="evenodd" clip-rule="evenodd" d="M375.295 231.03L394.452 178.394H329.56L310.419 230.983H328.907L334.555 215.466H325.696L330.911 201.104H357.707L344.102 238.483C342.628 242.533 338.71 245.323 334.497 245.323H262.855C259.89 245.323 257.205 243.931 255.603 241.563C254.001 239.195 253.67 236.127 254.707 233.277L263.808 208.274H248.22L234.735 245.323H216.81L241.17 178.394H230.257L208.387 238.483C206.913 242.533 202.994 245.323 198.781 245.323H156.796C153.831 245.323 151.146 243.931 149.544 241.563C147.943 239.195 147.611 236.127 148.648 233.277L168.624 178.394H125.135L119.479 193.934H141.059C144.024 193.934 146.709 195.326 148.311 197.694C149.912 200.062 150.244 203.13 149.206 205.98L137.376 238.483C135.902 242.533 131.983 245.323 127.771 245.323H80.3846L85.6039 230.983H122.181L130.447 208.274H108.866C105.901 208.274 103.217 206.881 101.615 204.513C100.013 202.146 99.6816 199.077 100.719 196.227L109.939 170.894C111.413 166.845 115.332 164.054 119.545 164.054H179.236C182.201 164.054 184.886 165.446 186.488 167.814C188.089 170.182 188.421 173.25 187.384 176.1L167.408 230.983H193.192L215.062 170.894C216.536 166.845 220.455 164.054 224.668 164.054H291.096C294.061 164.054 296.746 165.446 298.347 167.814C299.949 170.182 300.281 173.25 299.244 176.1L289.563 202.698C288.361 205.999 285.167 208.274 281.733 208.274L273.467 230.983H292.494L314.364 170.894C315.838 166.845 319.757 164.054 323.97 164.054H431.616L426.397 178.394H412.377L393.237 230.983H407.824L402.778 245.323H398.063L398.04 245.387H356.061L361.286 231.03H375.295ZM280.484 178.394H259.095L253.439 193.934H274.828L280.484 178.394Z" fill="#2C5078"/>
</svg>
