<svg width="1280" height="288" viewBox="0 0 1280 288" fill="none" xmlns="http://www.w3.org/2000/svg">
<path d="M147.378 114.785C147.105 111.46 146.186 108.61 144.621 106.234C143.057 103.859 140.795 102.077 137.834 100.89C134.874 99.7022 131.149 99.1081 126.658 99.1081C122.576 99.1081 119.157 99.6171 116.4 100.635C113.646 101.653 111.57 103.061 110.174 104.86C108.78 106.658 108.083 108.711 108.083 111.018C108.083 114.752 109.712 117.737 112.969 119.977C116.227 122.216 121.419 124.185 128.545 125.882L140.863 128.325C156.54 131.718 168.06 137.164 175.424 144.663C182.787 152.163 186.469 161.715 186.469 173.32C186.469 182.89 184.075 191.017 179.286 197.701C174.498 204.386 167.672 209.51 158.808 213.074C149.944 216.636 139.297 218.418 126.867 218.418C114.029 218.418 102.89 216.484 93.4474 212.615C84.0069 208.747 76.7389 202.893 71.6447 195.055C66.5505 187.216 64.0032 177.392 64.0032 165.583H100.957C101.228 170.062 102.416 173.88 104.52 177.036C106.624 180.192 109.542 182.567 113.274 184.162C117.008 185.757 121.419 186.554 126.508 186.554C130.852 186.554 134.551 185.977 137.605 184.824C140.659 183.67 142.984 182.109 144.578 180.141C146.173 178.173 146.97 175.899 146.97 173.32C146.97 170.877 146.224 168.773 144.731 167.009C143.238 165.244 140.828 163.666 137.503 162.275C134.178 160.884 129.801 159.611 124.371 158.458L109.508 155.098C96.0023 152.248 85.6697 147.446 78.5098 140.693C71.3498 133.941 67.77 124.965 67.77 113.767C67.77 104.605 70.2811 96.5124 75.3035 89.4878C80.3253 82.4639 87.2983 77.0005 96.2228 73.0983C105.147 69.1956 115.345 67.2449 126.814 67.2449C138.487 67.2449 148.65 69.1956 157.304 73.0983C165.956 77.0005 172.658 82.5484 177.409 89.7426C182.16 96.9362 184.535 105.284 184.535 114.785H147.378Z" fill="#2C5078"/>
<path d="M318.565 69.281V163.955C318.565 174.882 315.935 184.434 310.676 192.612C305.416 200.79 297.985 207.135 288.382 211.649C278.778 216.161 267.699 218.418 255.144 218.418C242.588 218.418 231.56 216.161 222.059 211.649C212.557 207.135 205.177 200.79 199.917 192.612C194.657 184.434 192.028 174.882 192.028 163.955V69.281H230.712V160.596C230.712 165.211 231.764 169.368 233.867 173.066C235.971 176.765 238.89 179.666 242.622 181.77C246.355 183.874 250.529 184.926 255.144 184.926C259.962 184.926 264.238 183.874 267.97 181.77C271.704 179.666 274.588 176.765 276.624 173.066C278.659 169.368 279.678 165.211 279.678 160.596V69.281H318.565Z" fill="#2C5078"/>
<path fill-rule="evenodd" clip-rule="evenodd" d="M366.574 167.518V216.687H327.89V69.281H390.599C401.594 69.281 411.18 71.2832 419.358 75.287C427.536 79.2915 433.881 85.0427 438.395 92.5426C442.908 100.042 445.165 108.881 445.165 119.061C445.165 129.309 442.874 138.081 438.292 145.377C433.922 152.338 427.805 157.677 419.944 161.394L450.051 216.687H407.804L381.698 167.518H366.574ZM366.574 137.182H381.743C386.833 137.182 391.04 136.554 394.366 135.298C397.691 134.043 400.253 132.075 402.052 129.394C403.851 126.713 404.75 123.269 404.75 119.061C404.75 114.786 403.851 111.274 402.052 108.525C400.253 105.776 397.658 103.723 394.264 102.366C390.871 101.009 386.697 100.33 381.743 100.33H366.574V137.182Z" fill="#2C5078"/>
<path fill-rule="evenodd" clip-rule="evenodd" d="M551.899 162.733H524.324V134.738H590.393V216.687H565.553L563.925 200.501H563.11C558.428 206.405 552.744 210.918 546.059 214.041C539.374 217.163 531.789 218.723 523.307 218.723C509.258 218.723 496.804 215.635 485.946 209.459C475.087 203.284 466.62 194.495 460.546 183.093C454.472 171.692 451.435 158.39 451.435 143.187C451.435 127.442 454.659 113.835 461.106 102.366C467.554 90.8959 476.258 82.1753 487.218 76.203C498.179 70.2307 510.344 67.2449 523.714 67.2449C535.183 67.2449 545.703 69.3824 555.271 73.6582C564.841 77.934 572.612 83.8891 578.584 91.5237C584.556 99.1589 588.018 107.931 588.968 117.839H549.876C548.994 114.243 547.382 111.188 545.041 108.678C542.699 106.166 539.781 104.266 536.286 102.977C532.791 101.687 528.837 101.042 524.426 101.042C517.639 101.042 511.752 102.671 506.764 105.929C501.776 109.186 497.941 113.954 495.26 120.231C492.579 126.509 491.239 134.026 491.239 142.78C491.239 151.535 492.512 159.086 495.057 165.431C497.602 171.776 501.283 176.612 506.102 179.938C510.921 183.263 516.724 184.926 523.51 184.926C529.618 184.926 534.827 183.976 539.136 182.075C543.446 180.175 546.653 177.511 548.756 174.084C550.724 170.879 551.772 167.095 551.899 162.733Z" fill="#2C5078"/>
<path d="M637.892 69.281H599.208V216.687H637.892V69.281Z" fill="#2C5078"/>
<path d="M648.194 69.2805H750.911V100.533H686.879V127.307H744.599V158.559H686.879V216.687H648.194V69.2805Z" fill="#2C5078"/>
<path d="M760.13 69.2805H798.814V185.434H858.978V216.687H760.13V69.2805Z" fill="#2C5078"/>
<path fill-rule="evenodd" clip-rule="evenodd" d="M1005.32 145.02C1005.32 160.833 1002.22 174.457 996.008 185.893C989.798 197.328 981.281 205.998 970.456 211.903C959.631 217.807 947.466 220.759 933.96 220.759C920.455 220.759 908.307 217.807 897.516 211.903C886.725 205.998 878.224 197.312 872.014 185.842C865.805 174.372 862.7 160.765 862.7 145.02C862.7 129.071 865.805 115.396 872.014 103.995C878.224 92.5927 886.725 83.9567 897.516 78.0867C908.307 72.216 920.455 69.281 933.96 69.281C947.466 69.281 959.631 72.216 970.456 78.0867C981.281 83.9567 989.798 92.5927 996.008 103.995C1002.22 115.396 1005.32 129.071 1005.32 145.02ZM918.466 160.565V187.187H949.556V160.565H976.178V129.475H949.556V102.853H918.466V129.475H891.844V160.565H918.466Z" fill="#2C5078"/>
<path d="M1002.94 69.2805H1046L1066.76 161.511H1067.99L1092.21 69.2805H1126.62L1150.95 161.919H1152.18L1172.84 69.2805H1216L1172.84 216.687H1135.38L1110.03 132.295H1108.91L1083.46 216.687H1046.3L1002.94 69.2805Z" fill="#2C5078"/>
</svg>
