<svg width="1280" height="288" viewBox="0 0 1280 288" fill="none" xmlns="http://www.w3.org/2000/svg">
<path fill-rule="evenodd" clip-rule="evenodd" d="M700.865 196.912L693.438 218.019H616.176L616.134 218.135H539.606L549.132 191.962H574.669L609.594 96.0076H491.294L456.401 191.878H490.105L500.401 163.59H484.252L493.759 137.407H542.608L517.806 205.549C515.119 212.932 507.975 218.019 500.295 218.019H369.691C364.286 218.019 359.391 215.481 356.472 211.165C353.553 206.848 352.948 201.254 354.839 196.059L371.429 150.478H343.013L318.43 218.019H285.753L330.162 96.0076H310.267L270.397 205.549C267.71 212.932 260.566 218.019 252.886 218.019H176.347C170.942 218.019 166.047 215.481 163.127 211.165C160.208 206.848 159.603 201.254 161.494 196.059L197.91 96.0076H118.629L108.318 124.336H147.659C153.064 124.336 157.959 126.875 160.879 131.191C163.798 135.508 164.403 141.101 162.512 146.297L140.945 205.549C138.258 212.932 131.114 218.019 123.434 218.019H37.0507L46.5654 191.878H113.245L128.313 150.478H88.9718C83.5674 150.478 78.6722 147.94 75.7527 143.623C72.8332 139.307 72.2284 133.713 74.1193 128.518L90.9282 82.3358C93.6152 74.9533 100.759 69.866 108.439 69.866H217.257C222.661 69.866 227.556 72.4041 230.476 76.7206C233.395 81.0371 234 86.6308 232.109 91.826L195.693 191.878H242.697L282.566 82.3358C285.254 74.9533 292.398 69.866 300.078 69.866H421.176C426.581 69.866 431.476 72.4041 434.395 76.7206C437.315 81.0371 437.919 86.6308 436.028 91.826L418.38 140.314C416.19 146.331 410.367 150.478 404.106 150.478L389.038 191.878H423.723L463.593 82.3358C466.28 74.9533 473.424 69.866 481.104 69.866H677.343L667.829 96.0076H642.271L607.377 191.878H670.02L709.869 82.3939C712.556 75.0114 719.7 69.9241 727.38 69.9241H831.373C836.778 69.9241 841.673 72.4622 844.592 76.7788C847.512 81.0953 848.117 86.6889 846.226 91.8841L809.81 191.936H880.268L920.138 82.3939C922.825 75.0114 929.969 69.9241 937.649 69.9241H1101.24C1106.64 69.9241 1111.54 72.4622 1114.46 76.7788C1117.38 81.0953 1117.98 86.6889 1116.09 91.8841L1079.67 191.936H1105.48L1149.88 69.9241H1182.56L1138.15 191.936H1165.87L1210.28 69.9241H1242.95L1193.57 205.607C1190.88 212.99 1183.74 218.077 1176.06 218.077H1060.33C1054.92 218.077 1050.03 215.539 1047.11 211.223C1044.19 206.906 1043.59 201.312 1045.48 196.117L1081.89 96.0656H1038.09L998.225 205.607C995.538 212.99 988.394 218.077 980.713 218.077H790.463C785.058 218.077 780.163 215.539 777.244 211.223C774.325 206.906 773.72 201.312 775.611 196.117L812.027 96.0656H737.57L724.881 130.93H776.779L767.265 157.071H715.366L700.865 196.912ZM947.839 96.0656L912.945 191.936H970.523L1005.42 96.0656H947.839ZM401.829 96.0076H362.838L352.527 124.336H391.518L401.829 96.0076Z" fill="white"/>
</svg>
