<svg width="512" height="512" viewBox="0 0 512 512" fill="none" xmlns="http://www.w3.org/2000/svg">
<path fill-rule="evenodd" clip-rule="evenodd" d="M485.22 141.388V370.608C485.22 433.863 433.865 485.218 370.61 485.218H141.39C78.1351 485.218 26.7803 433.863 26.7803 370.608V141.388C26.7803 78.1335 78.1351 26.7786 141.39 26.7786H370.61C433.865 26.7786 485.22 78.1335 485.22 141.388Z" fill="#2C5078"/>
<path fill-rule="evenodd" clip-rule="evenodd" d="M96.5932 346.036L122.989 273.515C124.463 269.465 128.381 266.675 132.594 266.675H189.64C192.604 266.675 195.289 268.067 196.891 270.435C198.492 272.803 198.824 275.871 197.787 278.721L177.811 333.604H216.461L238.331 273.515C239.805 269.465 243.724 266.675 247.937 266.675H337.674C340.639 266.675 343.324 268.067 344.925 270.435C346.527 272.803 346.858 275.871 345.821 278.721L325.845 333.604H339.999L364.359 266.675H382.284L357.924 333.604H373.126L397.486 266.675H415.411L388.321 341.104C386.848 345.153 382.929 347.944 378.716 347.944H315.233C312.268 347.944 309.583 346.552 307.981 344.184C306.38 341.816 306.048 338.748 307.086 335.898L327.061 281.015H303.037L281.166 341.104C279.692 345.153 275.773 347.944 271.56 347.944H167.199C164.234 347.944 161.548 346.552 159.947 344.184C158.346 341.816 158.014 338.748 159.051 335.898L179.027 281.015H138.184L131.223 300.139H159.692L154.473 314.479H126.004L114.621 345.753L96.5932 346.036ZM253.527 281.015L234.386 333.604H265.97L285.111 281.015H253.527Z" fill="white"/>
<path fill-rule="evenodd" clip-rule="evenodd" d="M375.296 231.028L394.454 178.393H329.561L310.42 230.982H328.909L334.557 215.465H325.698L330.913 201.102H357.709L344.104 238.481C342.63 242.531 338.711 245.322 334.498 245.322H262.856C259.891 245.322 257.206 243.93 255.605 241.562C254.003 239.194 253.671 236.126 254.709 233.276L263.809 208.272H248.221L234.736 245.322H216.812L241.172 178.393H230.259L208.388 238.481C206.914 242.531 202.995 245.322 198.782 245.322H156.797C153.832 245.322 151.147 243.93 149.545 241.562C147.944 239.194 147.612 236.126 148.65 233.276L168.625 178.393H125.136L119.48 193.932H141.06C144.025 193.932 146.71 195.325 148.312 197.693C149.913 200.06 150.245 203.129 149.208 205.979L137.378 238.481C135.904 242.531 131.985 245.322 127.772 245.322H80.3858L85.605 230.982H122.182L130.448 208.272H108.867C105.903 208.272 103.218 206.88 101.616 204.512C100.015 202.144 99.6828 199.076 100.72 196.226L109.941 170.893C111.415 166.843 115.333 164.053 119.546 164.053H179.238C182.203 164.053 184.888 165.445 186.489 167.813C188.091 170.181 188.422 173.249 187.385 176.099L167.409 230.982H193.193L215.064 170.893C216.538 166.843 220.456 164.053 224.669 164.053H291.098C294.062 164.053 296.748 165.445 298.349 167.813C299.951 170.181 300.282 173.249 299.245 176.099L289.564 202.697C288.363 205.998 285.168 208.272 281.734 208.272L273.468 230.982H292.495L314.366 170.893C315.84 166.843 319.759 164.053 323.971 164.053H431.618L426.399 178.393H412.379L393.238 230.982H407.826L402.78 245.322H398.065L398.042 245.386H356.062L361.288 231.028H375.296ZM280.485 178.393H259.097L253.441 193.932H274.829L280.485 178.393Z" fill="white"/>
</svg>
