<svg width="512" height="512" viewBox="0 0 512 512" fill="none" xmlns="http://www.w3.org/2000/svg">
<path d="M512 0H0V512H512V0Z" fill="#2C5078"/>
<path d="M151.991 190.46C151.851 188.761 151.382 187.305 150.582 186.091C149.783 184.877 148.627 183.967 147.115 183.36C145.602 182.753 143.699 182.45 141.404 182.45C139.318 182.45 137.571 182.71 136.163 183.23C134.756 183.75 133.695 184.47 132.982 185.389C132.27 186.307 131.914 187.356 131.914 188.535C131.914 190.443 132.746 191.968 134.41 193.113C136.074 194.257 138.727 195.263 142.368 196.129L148.662 197.378C156.672 199.112 162.558 201.894 166.321 205.726C170.083 209.558 171.964 214.438 171.964 220.368C171.964 225.257 170.741 229.41 168.294 232.825C165.848 236.241 162.36 238.859 157.831 240.679C153.302 242.5 147.862 243.41 141.511 243.41C134.952 243.41 129.26 242.422 124.436 240.445C119.612 238.469 115.899 235.478 113.296 231.473C110.693 227.468 109.391 222.448 109.391 216.415H128.272C128.411 218.703 129.018 220.654 130.093 222.266C131.168 223.879 132.659 225.092 134.566 225.907C136.473 226.722 138.727 227.129 141.328 227.129C143.547 227.129 145.437 226.835 146.997 226.245C148.558 225.656 149.746 224.858 150.56 223.853C151.375 222.847 151.783 221.686 151.783 220.368C151.783 219.119 151.401 218.044 150.638 217.143C149.876 216.241 148.644 215.435 146.945 214.724C145.246 214.013 143.01 213.363 140.236 212.774L132.642 211.057C125.741 209.601 120.462 207.148 116.803 203.697C113.145 200.247 111.316 195.661 111.316 189.94C111.316 185.258 112.599 181.124 115.165 177.534C117.731 173.946 121.294 171.154 125.854 169.16C130.414 167.166 135.624 166.17 141.484 166.17C147.448 166.17 152.641 167.166 157.062 169.16C161.483 171.154 164.907 173.989 167.335 177.665C169.762 181.34 170.976 185.605 170.976 190.46H151.991Z" fill="white"/>
<path d="M239.457 167.21V215.583C239.457 221.166 238.114 226.046 235.426 230.225C232.739 234.403 228.942 237.645 224.035 239.951C219.129 242.257 213.468 243.41 207.053 243.41C200.638 243.41 195.003 242.257 190.148 239.951C185.293 237.645 181.522 234.403 178.835 230.225C176.148 226.046 174.804 221.166 174.804 215.583V167.21H194.569V213.866C194.569 216.224 195.107 218.348 196.182 220.238C197.257 222.128 198.748 223.61 200.655 224.685C202.562 225.76 204.695 226.297 207.053 226.297C209.515 226.297 211.699 225.76 213.606 224.685C215.514 223.61 216.987 222.128 218.028 220.238C219.068 218.348 219.588 216.224 219.588 213.866V167.21H239.457Z" fill="white"/>
<path fill-rule="evenodd" clip-rule="evenodd" d="M263.987 217.403V242.526H244.222V167.21H276.262C281.88 167.21 286.778 168.233 290.956 170.279C295.135 172.325 298.377 175.263 300.683 179.095C302.989 182.927 304.142 187.443 304.142 192.645C304.142 197.881 302.972 202.362 300.631 206.09C298.398 209.647 295.272 212.375 291.256 214.274L306.639 242.526H285.053L271.715 217.403H263.987ZM263.987 201.903H271.737C274.338 201.903 276.488 201.582 278.187 200.941C279.886 200.299 281.195 199.294 282.114 197.924C283.033 196.554 283.492 194.795 283.492 192.645C283.492 190.46 283.033 188.666 282.114 187.261C281.195 185.857 279.869 184.808 278.135 184.114C276.401 183.421 274.268 183.074 271.737 183.074H263.987V201.903Z" fill="white"/>
<path fill-rule="evenodd" clip-rule="evenodd" d="M358.677 214.958H344.588V200.655H378.345V242.526H365.653L364.821 234.256H364.405C362.012 237.272 359.108 239.578 355.693 241.173C352.277 242.768 348.402 243.566 344.068 243.566C336.89 243.566 330.527 241.988 324.979 238.833C319.43 235.677 315.104 231.187 312.001 225.361C308.898 219.536 307.346 212.739 307.346 204.972C307.346 196.927 308.993 189.975 312.287 184.114C315.581 178.254 320.029 173.798 325.629 170.747C331.229 167.695 337.445 166.17 344.276 166.17C350.136 166.17 355.511 167.262 360.4 169.446C365.289 171.631 369.26 174.674 372.311 178.575C375.363 182.476 377.131 186.958 377.617 192.02H357.643C357.193 190.183 356.369 188.622 355.173 187.339C353.976 186.056 352.485 185.085 350.699 184.426C348.914 183.768 346.894 183.438 344.64 183.438C341.172 183.438 338.164 184.27 335.615 185.935C333.067 187.599 331.107 190.035 329.738 193.243C328.368 196.45 327.683 200.291 327.683 204.764C327.683 209.237 328.334 213.095 329.634 216.337C330.934 219.579 332.815 222.05 335.277 223.749C337.739 225.448 340.704 226.297 344.172 226.297C347.293 226.297 349.954 225.812 352.156 224.841C354.358 223.87 355.996 222.509 357.071 220.758C358.076 219.12 358.612 217.187 358.677 214.958Z" fill="white"/>
<path d="M402.614 167.21H382.849V242.526H402.614V167.21Z" fill="white"/>
<path d="M111.42 269.469H163.902V285.437H131.185V299.117H160.677V315.085H131.185V344.784H111.42V269.469Z" fill="white"/>
<path d="M168.613 269.469H188.378V328.816H219.118V344.784H168.613V269.469Z" fill="white"/>
<path fill-rule="evenodd" clip-rule="evenodd" d="M293.891 307.127C293.891 315.206 292.304 322.167 289.132 328.01C285.959 333.853 281.607 338.283 276.076 341.3C270.546 344.316 264.33 345.825 257.429 345.825C250.529 345.825 244.322 344.316 238.808 341.3C233.295 338.283 228.952 333.844 225.779 327.984C222.606 322.124 221.019 315.171 221.019 307.127C221.019 298.978 222.606 291.99 225.779 286.165C228.952 280.339 233.295 275.927 238.808 272.928C244.322 269.928 250.529 268.428 257.429 268.428C264.33 268.428 270.546 269.928 276.076 272.928C281.607 275.927 285.959 280.339 289.132 286.165C292.304 291.99 293.891 298.978 293.891 307.127ZM249.512 315.069V328.671H265.398V315.069H279V299.184H265.398V285.582H249.512V299.184H235.91V315.069H249.512Z" fill="white"/>
<path d="M292.672 269.469H314.674L325.284 316.593H325.909L338.288 269.469H355.869L368.3 316.801H368.924L379.483 269.469H401.537L379.483 344.784H360.342L347.39 301.665H346.818L333.815 344.784H314.83L292.672 269.469Z" fill="white"/>
</svg>
