<svg width="1280" height="288" viewBox="0 0 1280 288" fill="none" xmlns="http://www.w3.org/2000/svg">
<path fill-rule="evenodd" clip-rule="evenodd" d="M700.865 196.913L693.438 218.019H616.176L616.134 218.136H539.606L549.132 191.963H574.669L609.594 96.0078H491.295L456.401 191.878H490.105L500.401 163.591H484.252L493.759 137.408H542.608L517.806 205.55C515.119 212.932 507.975 218.019 500.295 218.019H369.692C364.287 218.019 359.391 215.481 356.472 211.165C353.553 206.848 352.948 201.255 354.839 196.059L371.429 150.478H343.013L318.43 218.019H285.753L330.162 96.0078H310.267L270.397 205.55C267.71 212.932 260.566 218.019 252.886 218.019H176.347C170.942 218.019 166.047 215.481 163.127 211.165C160.208 206.848 159.603 201.255 161.494 196.059L197.91 96.0078H118.629L108.319 124.337H147.659C153.064 124.337 157.959 126.875 160.879 131.191C163.798 135.508 164.403 141.102 162.512 146.297L140.946 205.55C138.259 212.932 131.115 218.019 123.434 218.019H37.0508L46.5655 191.878H113.245L128.313 150.478H88.972C83.5675 150.478 78.6724 147.94 75.7529 143.624C72.8333 139.307 72.2285 133.713 74.1194 128.518L90.9283 82.3361C93.6154 74.9535 100.759 69.8662 108.44 69.8662H217.257C222.661 69.8662 227.556 72.4043 230.476 76.7208C233.395 81.0374 234 86.631 232.109 91.8263L195.693 191.878H242.697L282.567 82.3361C285.254 74.9535 292.398 69.8662 300.078 69.8662H421.176C426.581 69.8662 431.476 72.4043 434.395 76.7208C437.315 81.0374 437.919 86.631 436.029 91.8263L418.38 140.314C416.19 146.332 410.367 150.478 404.106 150.478L389.038 191.878H423.723L463.593 82.3361C466.28 74.9535 473.424 69.8662 481.105 69.8662H677.344L667.829 96.0078H642.271L607.377 191.878H670.02L709.869 82.3942C712.556 75.0116 719.7 69.9243 727.38 69.9243H831.373C836.778 69.9243 841.673 72.4625 844.592 76.779C847.512 81.0955 848.117 86.6891 846.226 91.8844L809.81 191.936H880.268L920.138 82.3942C922.825 75.0116 929.969 69.9243 937.649 69.9243H1101.24C1106.64 69.9243 1111.54 72.4625 1114.46 76.779C1117.38 81.0955 1117.98 86.6891 1116.09 91.8844L1079.67 191.936H1105.48L1149.88 69.9243H1182.56L1138.15 191.936H1165.87L1210.28 69.9243H1242.95L1193.57 205.608C1190.88 212.99 1183.74 218.078 1176.06 218.078H1060.33C1054.92 218.078 1050.03 215.539 1047.11 211.223C1044.19 206.906 1043.59 201.313 1045.48 196.117L1081.89 96.0659H1038.09L998.225 205.608C995.538 212.99 988.394 218.078 980.714 218.078H790.463C785.058 218.078 780.163 215.539 777.244 211.223C774.325 206.906 773.72 201.313 775.611 196.117L812.027 96.0659H737.57L724.881 130.93H776.78L767.265 157.072H715.366L700.865 196.913ZM947.839 96.0659L912.945 191.936H970.524L1005.42 96.0659H947.839ZM401.829 96.0078H362.838L352.528 124.337H391.519L401.829 96.0078Z" fill="#2C5078"/>
</svg>
